<svg width="110" height="110" viewBox="0 0 110 110" fill="none" xmlns="http://www.w3.org/2000/svg">
<path d="M9.17581 44.1374C9.0704 46.0211 10.1246 47.7766 11.8387 48.5649L46.2321 64.3407L62.0079 98.7295C62.7596 100.361 64.3912 101.402 66.1741 101.402L66.4354 101.392C67.3553 101.341 68.2383 101.013 68.9692 100.452C69.7001 99.8916 70.245 99.1234 70.5329 98.2482L96.1766 20.1849C96.7129 18.544 96.282 16.7336 95.0629 15.5099C93.8437 14.2861 92.0379 13.869 90.3879 14.3961L12.32 40.0399C11.4448 40.3277 10.6767 40.8727 10.1158 41.6036C9.55492 42.3345 9.22735 43.2175 9.17581 44.1374ZM84.6358 25.937L65.4683 84.2828L53.8541 58.9736C53.3973 57.9758 52.597 57.1755 51.5991 56.7186L26.2808 45.1045L84.6358 25.937Z" fill="#6700EE"/>
</svg>
