<svg width="110" height="110" viewBox="0 0 110 110" fill="none" xmlns="http://www.w3.org/2000/svg">
<path fill-rule="evenodd" clip-rule="evenodd" d="M50.4167 87.0834C50.4167 88.2989 49.9338 89.4647 49.0742 90.3243C48.2147 91.1838 47.0489 91.6667 45.8333 91.6667C44.6178 91.6667 43.452 91.1838 42.5924 90.3243C41.7329 89.4647 41.25 88.2989 41.25 87.0834V36.6667C41.25 35.4511 41.7329 34.2853 42.5924 33.4258C43.452 32.5663 44.6178 32.0834 45.8333 32.0834C47.0489 32.0834 48.2147 32.5663 49.0742 33.4258C49.9338 34.2853 50.4167 35.4511 50.4167 36.6667V87.0834ZM32.0833 87.0834C32.0833 88.2989 31.6004 89.4647 30.7409 90.3243C29.8814 91.1838 28.7156 91.6667 27.5 91.6667C26.2844 91.6667 25.1186 91.1838 24.2591 90.3243C23.3996 89.4647 22.9167 88.2989 22.9167 87.0834V55C22.9167 53.7845 23.3996 52.6187 24.2591 51.7591C25.1186 50.8996 26.2844 50.4167 27.5 50.4167C28.7156 50.4167 29.8814 50.8996 30.7409 51.7591C31.6004 52.6187 32.0833 53.7845 32.0833 55V87.0834ZM59.5833 87.0834V45.8334C59.5833 44.6178 60.0662 43.452 60.9258 42.5925C61.7853 41.7329 62.9511 41.25 64.1667 41.25C65.3822 41.25 66.548 41.7329 67.4076 42.5925C68.2671 43.452 68.75 44.6178 68.75 45.8334V87.0834C68.75 88.2989 68.2671 89.4647 67.4076 90.3243C66.548 91.1838 65.3822 91.6667 64.1667 91.6667C62.9511 91.6667 61.7853 91.1838 60.9258 90.3243C60.0662 89.4647 59.5833 88.2989 59.5833 87.0834ZM77.9167 22.9167C77.9167 21.7011 78.3995 20.5353 79.2591 19.6758C80.1186 18.8163 81.2844 18.3334 82.5 18.3334C83.7156 18.3334 84.8814 18.8163 85.7409 19.6758C86.6005 20.5353 87.0833 21.7011 87.0833 22.9167V87.0834C87.0833 88.2989 86.6005 89.4647 85.7409 90.3243C84.8814 91.1838 83.7156 91.6667 82.5 91.6667C81.2844 91.6667 80.1186 91.1838 79.2591 90.3243C78.3995 89.4647 77.9167 88.2989 77.9167 87.0834V22.9167Z" fill="#6700EE"/>
</svg>
